:version 1.10
:name ASF
:units
  mass 1
  length 1
  angle deg
:documentation
  ASF file generated by Kaydara
:root
  axis xyz
  order  tx ty tz rx ry rz
  position 0 0 0
  orientation 0 0 0
:bonedata
  begin
    id 1
    name RightUpLegDummy
    direction -0.718183 -0.695806 0.00816078
    length 4.904
    axis 0 0 0 xyz
  end
  begin
    id 2
    name RightUpLeg
    direction -0.00334265 -0.999142 0.0412837
    length 17.4976
    axis -0.59612 0.00940841 -0.192072 xyz
    dof rx ry rz
  end
  begin
    id 3
    name RightLeg
    direction 0.000365068 -0.988824 -0.149089
    length 16.5821
    axis 6.58657 0.0604092 -0.318554 xyz
    dof rx ry rz
  end
  begin
    id 4
    name RightFoot
    direction 0.00079069 -0.460991 0.887405
    length 3.77069
    axis 0.000105557 -0.120464 -0.188919 xyz
    dof rx ry rz
  end
  begin
    id 5
    name RightToes
    direction 0.00124768 -0.014065 0.9999
    length 3.85082
    axis 0.00053932 0.542178 -0.142707 xyz
    dof rx ry rz
  end
  begin
    id 6
    name SpineDummy
    direction 8.3039e-015 1 4.58682e-016
    length 4.6813
    axis 0 0 0 xyz
  end
  begin
    id 7
    name Spine
    direction 4.12799e-006 0.999988 0.00494944
    length 10.1015
    axis -0.00149944 0.000129667 -0.000235877 xyz
    dof rx ry rz
  end
  begin
    id 8
    name Spine1
    direction 0 0 0
    length 0
    axis -0.00160567 0.000129431 -0.000308381 xyz
    dof rx ry rz
  end
  begin
    id 9
    name HEadDummy
    direction 5.38513e-006 0.999999 0.00127044
    length 3.43865
    axis -0.00160567 0.000129431 -0.000308381 xyz
  end
  begin
    id 10
    name HEad
    direction -0.0226495 0.980942 0.192974
    length 5.12695
    axis -0.00160642 -0.114462 -0.000307946 xyz
    dof rx ry rz
  end
  begin
    id 11
    name LeftShoulder1Dummy
    direction 0.99889 -0.0402564 -0.0244456
    length 3.5433
    axis -0.00160567 0.000129431 -0.000308381 xyz
  end
  begin
    id 12
    name LeftShoulder1
    direction 0.999464 -0.00142945 0.0326977
    length 4.05031
    axis 0.393425 -0.0796525 -0.0507861 xyz
    dof rx ry rz
  end
  begin
    id 13
    name LeftArm
    direction 0.998564 -0.000899612 -0.053557
    length 10.3537
    axis -22.9476 0.126974 0.960871 xyz
    dof rx ry rz
  end
  begin
    id 14
    name LeftForeArm
    direction 0.998903 0.00865904 0.0460121
    length 8.70632
    axis -9.91856 -0.0656997 -0.178106 xyz
    dof rx ry rz
  end
  begin
    id 15
    name LeftHand
    direction 0.992938 -0.0411687 0.11126
    length 5.32135
    axis -0.00981066 -0.00340928 0.18486 xyz
    dof rx ry rz
  end
  begin
    id 16
    name RightShoulderDummy
    direction -0.998891 -0.0402456 -0.0244411
    length 3.5433
    axis -0.00160567 0.000129431 -0.000308381 xyz
  end
  begin
    id 17
    name RightShoulder
    direction -0.999353 -0.00388479 0.0357579
    length 4.05031
    axis 1.48787 0.256014 0.157284 xyz
    dof rx ry rz
  end
  begin
    id 18
    name RightArm
    direction -0.998583 -0.000660455 -0.0532032
    length 10.3947
    axis -22.4211 -0.109147 -0.943573 xyz
    dof rx ry rz
  end
  begin
    id 19
    name RightForeArm
    direction -0.998898 0.00868588 0.0461311
    length 8.68355
    axis -9.92343 0.0658342 0.178556 xyz
    dof rx ry rz
  end
  begin
    id 20
    name RightHand
    direction -0.992843 -0.0414545 0.112004
    length 5.28593
    axis -0.00982288 0.00332907 -0.185539 xyz
    dof rx ry rz
  end
  begin
    id 21
    name LeftUpLegDummy
    direction 0.718183 -0.695806 0.00816078
    length 4.904
    axis 0 0 0 xyz
  end
  begin
    id 22
    name LeftUpLeg
    direction 0.00445374 -0.999139 0.0412407
    length 17.4976
    axis -0.593655 -0.0138231 0.255969 xyz
    dof rx ry rz
  end
  begin
    id 23
    name LeftLeg
    direction -0.00154847 -0.988829 -0.149046
    length 16.5821
    axis 6.5841 -0.0555156 0.250722 xyz
    dof rx ry rz
  end
  begin
    id 24
    name LeftFoot
    direction -0.00417678 -0.460985 0.887398
    length 3.77069
    axis 5.53694e-005 4.88088e-005 -0.000136194 xyz
    dof rx ry rz
  end
  begin
    id 25
    name LeftToes
    direction 0.00818061 -0.00485256 0.999955
    length 3.85048
    axis 6.41179e-005 4.88477e-005 -0.000136145 xyz
    dof rx ry rz
  end
:hierarchy
  begin
    root RightUpLegDummy SpineDummy LeftUpLegDummy
    RightUpLegDummy RightUpLeg
    RightUpLeg RightLeg
    RightLeg RightFoot
    RightFoot RightToes
    SpineDummy Spine
    Spine Spine1
    Spine1 HEadDummy LeftShoulder1Dummy RightShoulderDummy
    HEadDummy HEad
    LeftShoulder1Dummy LeftShoulder1
    LeftShoulder1 LeftArm
    LeftArm LeftForeArm
    LeftForeArm LeftHand
    RightShoulderDummy RightShoulder
    RightShoulder RightArm
    RightArm RightForeArm
    RightForeArm RightHand
    LeftUpLegDummy LeftUpLeg
    LeftUpLeg LeftLeg
    LeftLeg LeftFoot
    LeftFoot LeftToes
  end

:SAMPLES-PER-SECOND 30
:FULLY-SPECIFIED
:DEGREES
15
root  -78.4791 40.4169 -0.502782 -46.8345 88.6622 -48.9802
RightUpLeg  -2.85533 2.72219 3.44681
RightLeg  0.632495 6.7233 0.166991
RightFoot  -1.26994 0.347334 -3.39007
RightToes  -6.40286e-010 -1.59028e-015 9.93923e-017
Spine  -13.0645 -0.0562332 2.31139
Spine1  12.7146 0.0798023 -1.83363
HEad  -8.79364 1.28443 -0.27948
LeftShoulder1  9.93923e-017 0 1.22299e-017
LeftArm  20.0116 43.5791 -80.0909
LeftForeArm  -36.8754 -20.4557 3.51928
LeftHand  0.962294 6.83714 -3.83753
RightShoulder  1.98785e-016 -4.96962e-017 1.55301e-017
RightArm  22.6208 -46.6329 85.7587
RightForeArm  -47.1842 19.7775 -12.0633
RightHand  1.15214 -10.6534 -4.48338
LeftUpLeg  -3.8228 -0.227891 -0.846148
LeftLeg  1.63344 -7.23405 -0.382464
LeftFoot  -0.934623 -0.115429 1.06392
LeftToes  8.73142e-011 -6.07963e-011 6.03181e-012
16
root  -78.4935 40.4176 -0.498474 -48.5327 88.7007 -50.693
RightUpLeg  -2.89457 2.70887 3.44209
RightLeg  0.644885 6.68461 0.181753
RightFoot  -1.25629 0.348131 -3.39848
RightToes  -6.40286e-010 -1.59028e-015 9.93923e-017
Spine  -13.0037 -0.0938993 2.22785
Spine1  12.6023 0.0299095 -1.75223
HEad  -8.64727 1.22684 -0.334167
LeftShoulder1  9.93923e-017 0 1.22299e-017
LeftArm  19.1323 43.52 -79.8287
LeftForeArm  -35.7019 -20.2373 3.28338
LeftHand  0.962061 6.81517 -4.04395
RightShoulder  1.98785e-016 -4.96962e-017 1.55301e-017
RightArm  22.5007 -46.6056 85.741
RightForeArm  -47.3038 19.7738 -11.9894
RightHand  1.15468 -10.7501 -4.21984
LeftUpLeg  -3.88335 -0.255519 -0.854774
LeftLeg  1.66285 -7.26707 -0.362161
LeftFoot  -0.926614 -0.113328 1.04307
LeftToes  8.73142e-011 -6.07963e-011 6.03181e-012
17
root  -78.5067 40.4183 -0.494362 -49.2893 88.7332 -51.4282
RightUpLeg  -2.89733 2.67707 3.42339
RightLeg  0.663403 6.68564 0.200784
RightFoot  -1.24478 0.349959 -3.41777
RightToes  -6.40286e-010 -1.59028e-015 9.93923e-017
Spine  -12.928 -0.130246 2.16403
Spine1  12.531 -0.00860353 -1.71073
HEad  -8.5076 1.17602 -0.364849
LeftShoulder1  9.93923e-017 0 1.22299e-017
LeftArm  18.5164 43.466 -79.6305
LeftForeArm  -35.0757 -20.1063 3.15195
LeftHand  0.963313 6.78697 -4.14496
RightShoulder  1.98785e-016 -4.96962e-017 1.55301e-017
RightArm  22.3559 -46.5971 85.7549
RightForeArm  -47.5182 19.7807 -12.0116
RightHand  1.15783 -10.8805 -3.86898
LeftUpLeg  -3.88513 -0.279106 -0.872332
LeftLeg  1.66253 -7.27817 -0.34479
LeftFoot  -0.902634 -0.112481 1.03466
LeftToes  8.73142e-011 -6.07963e-011 6.03181e-012
18
root  -78.5158 40.4189 -0.487928 -48.6239 88.7335 -50.7164
RightUpLeg  -2.86743 2.6704 3.42379
RightLeg  0.673719 6.70376 0.1987
RightFoot  -1.24429 0.349477 -3.41268
RightToes  -6.40286e-010 -1.59028e-015 9.93923e-017
Spine  -12.8865 -0.14249 2.13146
Spine1  12.5369 -0.0116949 -1.7208
HEad  -8.36696 1.25414 -0.412459
LeftShoulder1  9.93923e-017 0 1.22299e-017
LeftArm  17.9766 43.3946 -79.4768
LeftForeArm  -34.5775 -19.9821 3.01898
LeftHand  0.965367 6.77344 -4.23506
RightShoulder  1.98785e-016 -4.96962e-017 1.55301e-017
RightArm  22.3614 -46.5984 85.7891
RightForeArm  -47.6158 19.7948 -12.138
RightHand  1.15455 -10.8839 -3.77746
LeftUpLeg  -3.8433 -0.278471 -0.87096
LeftLeg  1.65343 -7.27166 -0.341512
LeftFoot  -0.886312 -0.110237 1.01239
LeftToes  8.73142e-011 -6.07963e-011 6.03181e-012
19
root  -78.5211 40.4196 -0.480388 -47.5429 88.6973 -49.5937
RightUpLeg  -2.82728 2.70529 3.45981
RightLeg  0.659533 6.70538 0.178362
RightFoot  -1.23688 0.34902 -3.40786
RightToes  -6.40286e-010 -1.59028e-015 9.93923e-017
Spine  -12.8689 -0.153472 2.1579
Spine1  12.5532 -0.00198855 -1.80772
HEad  -8.10612 1.36491 -0.45893
LeftShoulder1  9.93923e-017 0 1.22299e-017
LeftArm  17.5346 43.3593 -79.3138
LeftForeArm  -34.1681 -19.8583 2.87263
LeftHand  0.971138 6.83036 -4.24891
RightShoulder  1.98785e-016 -4.96962e-017 1.55301e-017
RightArm  22.5362 -46.5941 85.8421
RightForeArm  -47.7241 19.8142 -12.2791
RightHand  1.14813 -10.8187 -3.82424
LeftUpLeg  -3.81613 -0.25255 -0.837996
LeftLeg  1.67877 -7.2638 -0.345359
LeftFoot  -0.893688 -0.106862 0.978902
LeftToes  8.73142e-011 -6.07963e-011 6.03181e-012
20
root  -78.5243 40.4202 -0.475107 -46.9548 88.6515 -48.9819
RightUpLeg  -2.79148 2.74361 3.50281
RightLeg  0.62457 6.70069 0.16894
RightFoot  -1.21293 0.351338 -3.43231
RightToes  -6.40286e-010 -1.59028e-015 9.93923e-017
Spine  -12.9003 -0.191461 2.24304
Spine1  12.5898 -0.0101498 -1.96766
HEad  -7.65931 1.35896 -0.445769
LeftShoulder1  9.93923e-017 0 1.22299e-017
LeftArm  17.4387 43.3922 -79.149
LeftForeArm  -34.2235 -19.8331 2.84009
LeftHand  0.984103 6.95784 -4.09887
RightShoulder  1.98785e-016 -4.96962e-017 1.55301e-017
RightArm  22.5158 -46.5784 85.9327
RightForeArm  -47.8682 19.8235 -12.3219
RightHand  1.14792 -10.861 -3.68538
LeftUpLeg  -3.81834 -0.219455 -0.795774
LeftLeg  1.72638 -7.25853 -0.347302
LeftFoot  -0.911415 -0.105679 0.967157
LeftToes  8.73142e-011 -6.07963e-011 6.03181e-012
